<svg xmlns="http://www.w3.org/2000/svg" width="175.68749954598024" height="226.12499839346856" fill="none" style=""><rect id="backgroundrect" width="100%" height="100%" x="0" y="0" fill="none" stroke="none"/>


<g class="currentLayer" style=""><title>Layer 1</title><path d="M81.5438,121.083 C79.2188,129.479 74.5688,136.39 67.5938,141.815 C60.7479,147.11 52.2875,149.758 42.2125,149.758 C32.1375,149.758 23.2896,146.077 15.668800000000001,138.715 C8.0479,131.223 4.2375,121.72900000000001 4.2375,110.233 C4.2375,98.737 7.918799999999999,89.30799999999999 15.281300000000002,81.946 C22.7729,74.583 31.879199999999997,70.90199999999999 42.6,70.90199999999999 C44.0208,70.90199999999999 45.7,71.483 47.6375,72.64599999999999 L39.8875,66.833 C30.975,55.208 26.5188,45.069 26.5188,36.415000000000006 C26.5188,27.631200000000007 29.6188,20.204099999999997 35.8188,14.133300000000006 C42.1479,7.933300000000003 50.6083,4.833299999999994 61.2,4.833299999999994 C71.9208,4.833299999999994 80.4458,7.868700000000004 86.775,13.939599999999999 C93.1042,19.881200000000007 96.2688,26.9854 96.2688,35.251999999999995 C96.2688,37.965 95.8167,40.935 94.9125,44.165000000000006 H77.0875 C77.8625,41.84 78.25,38.739999999999995 78.25,34.864999999999995 C78.25,30.989599999999996 76.6354,27.4375 73.4063,24.208299999999994 C70.3063,20.979100000000003 66.2375,19.364599999999996 61.2,19.364599999999996 C56.2917,19.364599999999996 52.2229,20.979100000000003 48.9938,24.208299999999994 C45.8938,27.4375 44.3438,31.700000000000003 44.3438,36.995999999999995 C44.3438,42.292 47.3146,48.879000000000005 53.2563,56.757999999999996 L123.394,148.208 H101.888 L81.5438,121.083 zM27.2938,128.058 C31.8146,132.967 37.3042,135.421 43.7625,135.421 C50.2208,135.421 55.775,132.967 60.425,128.058 C65.075,123.15 67.4,117.208 67.4,110.233 C67.4,103.12899999999999 65.075,97.12299999999999 60.425,92.215 C55.9042,87.30600000000001 50.35,84.852 43.7625,84.852 C37.3042,84.852 31.8146,87.30600000000001 27.2938,92.215 C22.7729,96.994 20.5125,102.935 20.5125,110.03999999999999 C20.5125,117.144 22.7729,123.15 27.2938,128.058 z" fill="#A3BDED" id="svg_1" class=""/><path d="M172.283,86.273 V100.417 L106.99,206.59199999999998 H172.283 V220.54199999999997 H86.6458 V206.59199999999998 L152.133,100.417 H86.6458 V86.273 H172.283 z" fill="#A3BDED" id="svg_2" class=""/></g></svg>