<svg width="186" height="392" viewBox="0 0 186 392" fill="none" xmlns="http://www.w3.org/2000/svg">
<path d="M84.6688 189.833C82.3438 198.229 77.6938 205.14 70.7188 210.565C63.8729 215.86 55.4125 218.508 45.3375 218.508C35.2625 218.508 26.4146 214.827 18.7938 207.465C11.1729 199.973 7.3625 190.479 7.3625 178.983C7.3625 167.487 11.0438 158.058 18.4063 150.696C25.8979 143.333 35.0042 139.652 45.725 139.652C47.1458 139.652 48.825 140.233 50.7625 141.396L43.0125 135.583C34.1 123.958 29.6438 113.819 29.6438 105.165C29.6438 96.3812 32.7438 88.9541 38.9438 82.8833C45.2729 76.6833 53.7333 73.5833 64.325 73.5833C75.0458 73.5833 83.5708 76.6187 89.9 82.6896C96.2292 88.6312 99.3938 95.7354 99.3938 104.002C99.3938 106.715 98.9417 109.685 98.0375 112.915H80.2125C80.9875 110.59 81.375 107.49 81.375 103.615C81.375 99.7396 79.7604 96.1875 76.5313 92.9583C73.4313 89.7291 69.3625 88.1146 64.325 88.1146C59.4167 88.1146 55.3479 89.7291 52.1188 92.9583C49.0188 96.1875 47.4688 100.45 47.4688 105.746C47.4688 111.042 50.4396 117.629 56.3813 125.508L126.519 216.958H105.013L84.6688 189.833ZM30.4188 196.808C34.9396 201.717 40.4292 204.171 46.8875 204.171C53.3458 204.171 58.9 201.717 63.55 196.808C68.2 191.9 70.525 185.958 70.525 178.983C70.525 171.879 68.2 165.873 63.55 160.965C59.0292 156.056 53.475 153.602 46.8875 153.602C40.4292 153.602 34.9396 156.056 30.4188 160.965C25.8979 165.744 23.6375 171.685 23.6375 178.79C23.6375 185.894 25.8979 191.9 30.4188 196.808Z" fill="#A3BDED"/>
<path d="M175.408 155.023V169.167L110.115 275.342H175.408V289.292H89.7708V275.342L155.258 169.167H89.7708V155.023H175.408Z" fill="#A3BDED"/>
</svg>
